<svg xmlns="http://www.w3.org/2000/svg" viewBox="0 0 280 280" fill="none" shape-rendering="auto"><metadata xmlns:rdf="http://www.w3.org/1999/02/22-rdf-syntax-ns#" xmlns:xsi="http://www.w3.org/2001/XMLSchema-instance" xmlns:dc="http://purl.org/dc/elements/1.1/" xmlns:dcterms="http://purl.org/dc/terms/"><rdf:RDF><rdf:Description><dc:title>Avataaars</dc:title><dc:creator>Pablo Stanley</dc:creator><dc:source xsi:type="dcterms:URI">https://avataaars.com/</dc:source><dcterms:license xsi:type="dcterms:URI">https://avataaars.com/</dcterms:license><dc:rights>Remix of „Avataaars” (https://avataaars.com/) by „Pablo Stanley”, licensed under „Free for personal and commercial use” (https://avataaars.com/)</dc:rights></rdf:Description></rdf:RDF></metadata><mask id="viewboxMask"><rect width="280" height="280" rx="0" ry="0" x="0" y="0" fill="#fff" /></mask><g mask="url(#viewboxMask)"><rect fill="#e3f2fd" width="280" height="280" x="0" y="0" /><g transform="translate(8)"><path d="M132 36a56 56 0 0 0-56 56v6.17A12 12 0 0 0 66 110v14a12 12 0 0 0 10.3 11.88 56.04 56.04 0 0 0 31.7 44.73v18.4h-4a72 72 0 0 0-72 72v9h200v-9a72 72 0 0 0-72-72h-4v-18.39a56.04 56.04 0 0 0 31.7-44.73A12 12 0 0 0 198 124v-14a12 12 0 0 0-10-11.83V92a56 56 0 0 0-56-56Z" fill="#d08b5b"/><path d="M108 180.61v8a55.79 55.79 0 0 0 24 5.39c8.59 0 16.73-1.93 24-5.39v-8a55.79 55.79 0 0 1-24 5.39 55.79 55.79 0 0 1-24-5.39Z" fill="#000" fill-opacity=".1"/><g transform="translate(0 170)"><path d="M196 38.63V110H68V38.63a71.52 71.52 0 0 1 26-8.94v44.3h76V29.69a71.52 71.52 0 0 1 26 8.94Z" fill="#a7ffc4"/><path d="M86 83a5 5 0 1 1-10 0 5 5 0 0 1 10 0ZM188 83a5 5 0 1 1-10 0 5 5 0 0 1 10 0Z" fill="#F4F4F4"/></g><g transform="translate(78 134)"><path fill-rule="evenodd" clip-rule="evenodd" d="M35.12 29.87a19 19 0 0 1 37.77.09c.08.77-.77 2.04-1.85 2.04H37.1C36 32 35 30.82 35.12 29.87Z" fill="#000" fill-opacity=".7"/><path d="M69.59 32H38.4a11 11 0 0 1 15.6-6.8A11 11 0 0 1 69.59 32Z" fill="#FF4F6D"/><path d="M66.57 17.75A5 5 0 0 1 65 18H44c-.8 0-1.57-.2-2.24-.53A18.92 18.92 0 0 1 54 13c4.82 0 9.22 1.8 12.57 4.75Z" fill="#fff"/></g><g transform="translate(104 122)"><path fill-rule="evenodd" clip-rule="evenodd" d="M16 8c0 4.42 5.37 8 12 8s12-3.58 12-8" fill="#000" fill-opacity=".16"/></g><g transform="translate(76 90)"><g fill="#000" fill-opacity=".6"><path d="M36 22a6 6 0 1 1-12 0 6 6 0 0 1 12 0Z"/><path fill-rule="evenodd" clip-rule="evenodd" d="M70.6 24.96c1.59-3.92 5.55-6.86 10.37-7.2 4.8-.33 9.12 2 11.24 5.64.63 1.09-.1 2.06-.93 1.43-2.6-1.93-6.15-3-10-2.73A15.13 15.13 0 0 0 71.95 26c-.84.78-1.81.1-1.35-1.04Z"/></g></g><g transform="translate(76 82)"><path d="M38.66 11.1c-5 .35-9.92.08-14.92-.13-3.83-.16-7.72-.68-11.37 1.01-.7.32-4.53 2.28-4.44 3.35.07.85 3.93 2.2 4.63 2.44 3.67 1.29 7.18.9 10.95.66 4.64-.27 9.25-.07 13.87-.2 3.12-.1 7.92-.63 9.46-4.4.46-1.14.1-3.42-.36-4.66-.19-.5-.72-.69-1.13-.4a15.04 15.04 0 0 1-6.68 2.32ZM73.34 11.1c5 .35 9.92.08 14.92-.13 3.83-.16 7.72-.68 11.37 1.01.7.32 4.53 2.28 4.44 3.35-.07.85-3.93 2.2-4.63 2.44-3.67 1.29-7.18.9-10.95.66-4.63-.27-9.24-.07-13.86-.2-3.12-.1-7.92-.63-9.46-4.4-.46-1.14-.1-3.42.36-4.66.18-.5.72-.69 1.13-.4a15.04 15.04 0 0 0 6.68 2.32Z" fill-rule="evenodd" clip-rule="evenodd" fill="#000" fill-opacity=".6"/></g><g transform="translate(-1)"><path d="M188.32 138.76C227.9 129.26 255 109.87 255 87.5c0-23.5-29.92-43.72-72.8-52.63l-.31-1.43A40 40 0 0 0 142.82 2h-18.64a40 40 0 0 0-39.07 31.44l-.27 1.21C41.41 43.45 11 63.8 11 87.5c0 22.37 27.1 41.76 66.68 51.26-.2-1.28-.36-2.58-.47-3.9A12 12 0 0 1 67 123v-13a12 12 0 0 1 10-11.83V92c0-8 1.68-15.62 4.7-22.51 8.61-15.69 92.73-16.49 102.66.16A55.82 55.82 0 0 1 189 92v6.17A12 12 0 0 1 199 110v13a12 12 0 0 1-10.2 11.87 56.06 56.06 0 0 1-.48 3.9Z" fill="#e6e6e6"/><path d="M189 92.74c3.85-3.25 6-6.9 6-10.74 0-6.08-5.38-11.65-14.32-15.98 1.64 1.1 2.9 2.3 3.68 3.63A55.82 55.82 0 0 1 189 92v.74ZM157.26 58.99a144.36 144.36 0 0 0-24.26-2c-8.98 0-17.52.78-25.22 2.17 15.16-2.2 34.11-2.3 49.48-.17ZM84.69 66.33C76.12 70.62 71 76.07 71 82c0 3.85 2.15 7.49 6 10.74V92c0-8 1.68-15.62 4.7-22.51a9.94 9.94 0 0 1 2.99-3.16Z" fill="#000" fill-opacity=".5"/></g><g transform="translate(49 72)"></g><g transform="translate(62 42)"></g></g></g></svg>