<svg width="200" height="200" viewBox="0 0 200 200" xmlns="http://www.w3.org/2000/svg">
  <!-- Background circle -->
  <circle cx="100" cy="100" r="95" fill="#2563eb" stroke="#1e40af" stroke-width="3"/>
  
  <!-- Building icon (simplified) -->
  <g transform="translate(50, 40)">
    <!-- Main building -->
    <rect x="20" y="20" width="60" height="80" fill="#ffffff" rx="4"/>
    
    <!-- Windows - 3 columns, 5 rows -->
    <rect x="28" y="28" width="12" height="10" fill="#2563eb" rx="1"/>
    <rect x="44" y="28" width="12" height="10" fill="#2563eb" rx="1"/>
    <rect x="60" y="28" width="12" height="10" fill="#2563eb" rx="1"/>
    
    <rect x="28" y="42" width="12" height="10" fill="#2563eb" rx="1"/>
    <rect x="44" y="42" width="12" height="10" fill="#2563eb" rx="1"/>
    <rect x="60" y="42" width="12" height="10" fill="#2563eb" rx="1"/>
    
    <rect x="28" y="56" width="12" height="10" fill="#2563eb" rx="1"/>
    <rect x="44" y="56" width="12" height="10" fill="#2563eb" rx="1"/>
    <rect x="60" y="56" width="12" height="10" fill="#2563eb" rx="1"/>
    
    <rect x="28" y="70" width="12" height="10" fill="#2563eb" rx="1"/>
    <rect x="44" y="70" width="12" height="10" fill="#2563eb" rx="1"/>
    <rect x="60" y="70" width="12" height="10" fill="#2563eb" rx="1"/>
    
    <rect x="28" y="84" width="12" height="10" fill="#2563eb" rx="1"/>
    <rect x="44" y="84" width="12" height="10" fill="#2563eb" rx="1"/>
    <rect x="60" y="84" width="12" height="10" fill="#2563eb" rx="1"/>
    
    <!-- Door/entrance -->
    <rect x="42" y="88" width="16" height="12" fill="#1e40af" rx="2"/>
    
    <!-- Left smaller building -->
    <rect x="0" y="50" width="18" height="50" fill="#e5e7eb" rx="2"/>
    <rect x="4" y="56" width="4" height="4" fill="#6b7280" rx="0.5"/>
    <rect x="10" y="56" width="4" height="4" fill="#6b7280" rx="0.5"/>
    <rect x="4" y="64" width="4" height="4" fill="#6b7280" rx="0.5"/>
    <rect x="10" y="64" width="4" height="4" fill="#6b7280" rx="0.5"/>
    <rect x="4" y="72" width="4" height="4" fill="#6b7280" rx="0.5"/>
    <rect x="10" y="72" width="4" height="4" fill="#6b7280" rx="0.5"/>
    <rect x="4" y="80" width="4" height="4" fill="#6b7280" rx="0.5"/>
    <rect x="10" y="80" width="4" height="4" fill="#6b7280" rx="0.5"/>
    
    <!-- Right smaller building -->
    <rect x="82" y="40" width="18" height="60" fill="#e5e7eb" rx="2"/>
    <rect x="86" y="46" width="4" height="4" fill="#6b7280" rx="0.5"/>
    <rect x="92" y="46" width="4" height="4" fill="#6b7280" rx="0.5"/>
    <rect x="86" y="54" width="4" height="4" fill="#6b7280" rx="0.5"/>
    <rect x="92" y="54" width="4" height="4" fill="#6b7280" rx="0.5"/>
    <rect x="86" y="62" width="4" height="4" fill="#6b7280" rx="0.5"/>
    <rect x="92" y="62" width="4" height="4" fill="#6b7280" rx="0.5"/>
    <rect x="86" y="70" width="4" height="4" fill="#6b7280" rx="0.5"/>
    <rect x="92" y="70" width="4" height="4" fill="#6b7280" rx="0.5"/>
    <rect x="86" y="78" width="4" height="4" fill="#6b7280" rx="0.5"/>
    <rect x="92" y="78" width="4" height="4" fill="#6b7280" rx="0.5"/>
  </g>
  
  <!-- Text "BC" -->
  <text x="100" y="170" font-family="Arial, sans-serif" font-size="32" font-weight="bold" fill="#ffffff" text-anchor="middle">BC</text>
</svg>
